<?xml version="1.0" encoding="UTF-8" standalone="no"?>
<!DOCTYPE svg PUBLIC "-//W3C//DTD SVG 1.1//EN" "http://www.w3.org/Graphics/SVG/1.1/DTD/svg11.dtd">
<svg width="100%" height="100%" viewBox="0 0 800 800" version="1.1" xmlns="http://www.w3.org/2000/svg" xmlns:xlink="http://www.w3.org/1999/xlink" xml:space="preserve" xmlns:serif="http://www.serif.com/" style="fill-rule:evenodd;clip-rule:evenodd;stroke-linejoin:round;stroke-miterlimit:2;">
    <g id="Layer1">
        <g transform="matrix(1.06331,0,0,1.06331,-42.5323,-8.11406)">
            <circle cx="416.185" cy="383.815" r="376.185" style="fill:rgb(83,49,238);"/>
        </g>
        <g transform="matrix(1,0,0,1.14286,-2.27374e-13,-122.857)">
            <rect x="100" y="340" width="600" height="60" style="fill:rgb(49,204,236);"/>
        </g>
        <g transform="matrix(2.74088e-17,0.447619,-1.14286,6.99798e-17,557.143,220.952)">
            <rect x="100" y="340" width="600" height="60" style="fill:rgb(49,204,236);"/>
        </g>
        <g transform="matrix(2.69714e-17,0.440476,-1.14286,6.99798e-17,1088.57,221.667)">
            <rect x="100" y="340" width="600" height="60" style="fill:rgb(49,204,236);"/>
        </g>
        <g transform="matrix(1,0,0,1.14286,-2.27374e-13,-22.8571)">
            <rect x="100" y="340" width="600" height="60" style="fill:rgb(49,204,236);"/>
        </g>
        <g transform="matrix(1,0,0,1.14286,-2.27374e-13,77.1429)">
            <rect x="100" y="340" width="600" height="60" style="fill:rgb(49,204,236);"/>
        </g>
        <g transform="matrix(0.733646,0,0,0.92374,78.3102,-82.4668)">
            <path d="M646.317,820L530.567,691.342L311.974,691.342L646.317,820L146.676,820L503.503,201.694L525.571,201.694L646.317,820ZM493.003,349.088L311.974,691.342L521.823,630.136L493.003,349.088Z" style="fill-rule:nonzero;"/>
        </g>
        <g transform="matrix(0.533333,0,0,1.14286,46.6667,-22.8571)">
            <rect x="100" y="340" width="600" height="60" style="fill:rgb(49,204,236);"/>
        </g>
    </g>
    <g id="Layer11" serif:id="Layer1">
        <g transform="matrix(1.06331,0,0,1.06331,-42.5323,-8.11406)">
            <circle cx="416.185" cy="383.815" r="376.185" style="fill:rgb(83,49,238);"/>
        </g>
        <g transform="matrix(1,0,0,1.14286,-2.27374e-13,-122.857)">
            <rect x="100" y="340" width="600" height="60" style="fill:rgb(49,204,236);"/>
        </g>
        <g transform="matrix(2.74088e-17,0.447619,-1.14286,6.99798e-17,557.143,220.952)">
            <rect x="100" y="340" width="600" height="60" style="fill:rgb(49,204,236);"/>
        </g>
        <g transform="matrix(2.69714e-17,0.440476,-1.14286,6.99798e-17,1088.57,221.667)">
            <rect x="100" y="340" width="600" height="60" style="fill:rgb(49,204,236);"/>
        </g>
        <g transform="matrix(1,0,0,1.14286,-2.27374e-13,-22.8571)">
            <rect x="100" y="340" width="600" height="60" style="fill:rgb(49,204,236);"/>
        </g>
        <g transform="matrix(1,0,0,1.14286,-2.27374e-13,77.1429)">
            <rect x="100" y="340" width="600" height="60" style="fill:rgb(49,204,236);"/>
        </g>
        <g transform="matrix(0.733646,0,0,0.92374,78.3102,-82.4668)">
            <path d="M646.317,820L530.567,691.342L311.974,691.342L646.317,820L146.676,820L503.503,201.694L525.571,201.694L646.317,820ZM493.003,349.088L311.974,691.342L521.823,630.136L493.003,349.088Z" style="fill-rule:nonzero;"/>
        </g>
        <g transform="matrix(0.533333,0,0,1.14286,46.6667,-22.8571)">
            <rect x="100" y="340" width="600" height="60" style="fill:rgb(49,204,236);"/>
        </g>
    </g>
    <g id="Layer12" serif:id="Layer1">
        <g transform="matrix(1.06331,0,0,1.06331,-42.5323,-8.11406)">
            <circle cx="416.185" cy="383.815" r="376.185" style="fill:rgb(83,49,238);"/>
        </g>
        <g transform="matrix(1,0,0,1.14286,-2.27374e-13,-122.857)">
            <rect x="100" y="340" width="600" height="60" style="fill:rgb(49,204,236);"/>
        </g>
        <g transform="matrix(1.77865e-17,0.290476,-1.14286,6.99798e-17,557.143,236.667)">
            <rect x="100" y="340" width="600" height="60" style="fill:rgb(49,204,236);"/>
        </g>
        <g transform="matrix(1.77865e-17,0.290476,-1.14286,6.99798e-17,1088.57,236.667)">
            <rect x="100" y="340" width="600" height="60" style="fill:rgb(49,204,236);"/>
        </g>
        <g transform="matrix(1,0,0,1.14286,4.26326e-14,-17.1429)">
            <rect x="100" y="340" width="600" height="60" style="fill:rgb(49,204,236);"/>
        </g>
        <g transform="matrix(0.96069,0,0,0.964173,19.0897,-152.545)">
            <path d="M646.317,820L530.567,691.342L311.974,691.342L646.317,820L146.676,820L503.503,201.694L525.571,201.694L646.317,820ZM493.003,349.088L311.974,691.342L521.823,630.136L493.003,349.088Z" style="fill-rule:nonzero;"/>
        </g>
        <g transform="matrix(0.22381,1.38778e-17,0,1.14286,237.619,-17.1429)">
            <rect x="100" y="340" width="600" height="60" style="fill:rgb(49,204,236);"/>
        </g>
        <g transform="matrix(0.178571,1.38778e-17,0,1.14286,475,-122.857)">
            <rect x="100" y="340" width="600" height="60" style="fill:rgb(49,204,236);"/>
        </g>
    </g>
    <g id="Layer13" serif:id="Layer1">
        <g transform="matrix(1.06331,0,0,1.06331,-42.5323,-8.11406)">
            <circle cx="416.185" cy="383.815" r="376.185" style="fill:rgb(83,49,238);"/>
        </g>
        <g transform="matrix(0.96069,0,0,0.964173,67.0897,-121.545)">
            <path d="M646.317,820L530.567,691.342L311.974,691.342L646.317,820L146.676,820L503.503,201.694L525.571,201.694L646.317,820ZM493.003,349.088L311.974,691.342L521.823,630.136L493.003,349.088Z" style="fill:rgb(42,68,152);fill-rule:nonzero;"/>
        </g>
        <g transform="matrix(0.96069,0,0,0.964173,44.0897,-138.545)">
            <path d="M646.317,820L530.567,691.342L311.974,691.342L646.317,820L146.676,820L503.503,201.694L525.571,201.694L646.317,820ZM493.003,349.088L311.974,691.342L521.823,630.136L493.003,349.088Z" style="fill:rgb(49,204,236);fill-rule:nonzero;"/>
        </g>
        <g transform="matrix(0.96069,0,0,0.964173,19.0897,-152.545)">
            <path d="M646.317,820L530.567,691.342L311.974,691.342L646.317,820L146.676,820L503.503,201.694L525.571,201.694L646.317,820ZM493.003,349.088L311.974,691.342L521.823,630.136L493.003,349.088Z" style="fill-rule:nonzero;"/>
        </g>
    </g>
    <g id="Layer14" serif:id="Layer1">
        <g transform="matrix(1.06331,0,0,1.06331,-42.5323,-8.11406)">
            <circle cx="416.185" cy="383.815" r="376.185" style="fill:rgb(83,49,238);"/>
        </g>
        <g transform="matrix(1,0,0,1,-46,0.923077)">
            <g transform="matrix(0.96069,0,0,0.964173,67.0897,-121.545)">
                <path d="M646.317,820L530.567,691.342L311.974,691.342L646.317,820L146.676,820L503.503,201.694L525.571,201.694L646.317,820ZM493.003,349.088L311.974,691.342L521.823,630.136L493.003,349.088Z" style="fill:rgb(42,68,152);fill-rule:nonzero;"/>
            </g>
            <g transform="matrix(0.96069,0,0,0.964173,43.0897,-137.045)">
                <path d="M646.317,820L530.567,691.342L311.974,691.342L646.317,820L146.676,820L503.503,201.694L525.571,201.694L646.317,820ZM493.003,349.088L311.974,691.342L521.823,630.136L493.003,349.088Z" style="fill:rgb(49,204,236);fill-rule:nonzero;"/>
            </g>
            <g transform="matrix(0.96069,0,0,0.964173,19.0897,-152.545)">
                <path d="M646.317,820L530.567,691.342L311.974,691.342L646.317,820L146.676,820L503.503,201.694L525.571,201.694L646.317,820ZM493.003,349.088L311.974,691.342L521.823,630.136L493.003,349.088Z" style="fill-rule:nonzero;"/>
            </g>
        </g>
    </g>
</svg>
